<?xml version="1.0" encoding="utf-8"?>
<svg xmlns="http://www.w3.org/2000/svg" xmlns:xlink="http://www.w3.org/1999/xlink" width="600" height="400" viewBox="0 0 2400 1600">
<defs>
  <clipPath id="clip420">
    <rect x="0" y="0" width="2400" height="1600"/>
  </clipPath>
</defs>
<path clip-path="url(#clip420)" d="
M0 1600 L2400 1600 L2400 0 L0 0  Z
  " fill="#ffffff" fill-rule="evenodd" fill-opacity="1"/>
<defs>
  <clipPath id="clip421">
    <rect x="480" y="0" width="1681" height="1600"/>
  </clipPath>
</defs>
<path clip-path="url(#clip420)" d="
M234.125 1423.18 L2352.76 1423.18 L2352.76 123.472 L234.125 123.472  Z
  " fill="#ffffff" fill-rule="evenodd" fill-opacity="1"/>
<defs>
  <clipPath id="clip422">
    <rect x="234" y="123" width="2120" height="1301"/>
  </clipPath>
</defs>
<polyline clip-path="url(#clip422)" style="stroke:#000000; stroke-linecap:butt; stroke-linejoin:round; stroke-width:2; stroke-opacity:0.1; fill:none" points="
  234.125,1423.18 234.125,123.472 
  "/>
<polyline clip-path="url(#clip422)" style="stroke:#000000; stroke-linecap:butt; stroke-linejoin:round; stroke-width:2; stroke-opacity:0.1; fill:none" points="
  940.336,1423.18 940.336,123.472 
  "/>
<polyline clip-path="url(#clip422)" style="stroke:#000000; stroke-linecap:butt; stroke-linejoin:round; stroke-width:2; stroke-opacity:0.1; fill:none" points="
  1646.55,1423.18 1646.55,123.472 
  "/>
<polyline clip-path="url(#clip422)" style="stroke:#000000; stroke-linecap:butt; stroke-linejoin:round; stroke-width:2; stroke-opacity:0.1; fill:none" points="
  2352.76,1423.18 2352.76,123.472 
  "/>
<polyline clip-path="url(#clip420)" style="stroke:#000000; stroke-linecap:butt; stroke-linejoin:round; stroke-width:4; stroke-opacity:1; fill:none" points="
  234.125,1423.18 2352.76,1423.18 
  "/>
<polyline clip-path="url(#clip420)" style="stroke:#000000; stroke-linecap:butt; stroke-linejoin:round; stroke-width:4; stroke-opacity:1; fill:none" points="
  234.125,1423.18 234.125,1407.58 
  "/>
<polyline clip-path="url(#clip420)" style="stroke:#000000; stroke-linecap:butt; stroke-linejoin:round; stroke-width:4; stroke-opacity:1; fill:none" points="
  940.336,1423.18 940.336,1407.58 
  "/>
<polyline clip-path="url(#clip420)" style="stroke:#000000; stroke-linecap:butt; stroke-linejoin:round; stroke-width:4; stroke-opacity:1; fill:none" points="
  1646.55,1423.18 1646.55,1407.58 
  "/>
<polyline clip-path="url(#clip420)" style="stroke:#000000; stroke-linecap:butt; stroke-linejoin:round; stroke-width:4; stroke-opacity:1; fill:none" points="
  2352.76,1423.18 2352.76,1407.58 
  "/>
<path clip-path="url(#clip420)" d="M234.125 1452.37 Q230.514 1452.37 228.686 1455.94 Q226.88 1459.48 226.88 1466.61 Q226.88 1473.71 228.686 1477.28 Q230.514 1480.82 234.125 1480.82 Q237.76 1480.82 239.565 1477.28 Q241.394 1473.71 241.394 1466.61 Q241.394 1459.48 239.565 1455.94 Q237.76 1452.37 234.125 1452.37 M234.125 1448.67 Q239.936 1448.67 242.991 1453.27 Q246.07 1457.86 246.07 1466.61 Q246.07 1475.33 242.991 1479.94 Q239.936 1484.52 234.125 1484.52 Q228.315 1484.52 225.237 1479.94 Q222.181 1475.33 222.181 1466.61 Q222.181 1457.86 225.237 1453.27 Q228.315 1448.67 234.125 1448.67 Z" fill="#000000" fill-rule="evenodd" fill-opacity="1" /><path clip-path="url(#clip420)" d="M930.613 1449.29 L948.97 1449.29 L948.97 1453.23 L934.896 1453.23 L934.896 1461.7 Q935.914 1461.35 936.933 1461.19 Q937.951 1461 938.97 1461 Q944.757 1461 948.136 1464.18 Q951.516 1467.35 951.516 1472.76 Q951.516 1478.34 948.044 1481.44 Q944.572 1484.52 938.252 1484.52 Q936.076 1484.52 933.808 1484.15 Q931.562 1483.78 929.155 1483.04 L929.155 1478.34 Q931.238 1479.48 933.461 1480.03 Q935.683 1480.59 938.16 1480.59 Q942.164 1480.59 944.502 1478.48 Q946.84 1476.38 946.84 1472.76 Q946.84 1469.15 944.502 1467.05 Q942.164 1464.94 938.16 1464.94 Q936.285 1464.94 934.41 1465.36 Q932.558 1465.77 930.613 1466.65 L930.613 1449.29 Z" fill="#000000" fill-rule="evenodd" fill-opacity="1" /><path clip-path="url(#clip420)" d="M1621.23 1479.92 L1628.87 1479.92 L1628.87 1453.55 L1620.56 1455.22 L1620.56 1450.96 L1628.83 1449.29 L1633.5 1449.29 L1633.5 1479.92 L1641.14 1479.92 L1641.14 1483.85 L1621.23 1483.85 L1621.23 1479.92 Z" fill="#000000" fill-rule="evenodd" fill-opacity="1" /><path clip-path="url(#clip420)" d="M1660.59 1452.37 Q1656.97 1452.37 1655.15 1455.94 Q1653.34 1459.48 1653.34 1466.61 Q1653.34 1473.71 1655.15 1477.28 Q1656.97 1480.82 1660.59 1480.82 Q1664.22 1480.82 1666.02 1477.28 Q1667.85 1473.71 1667.85 1466.61 Q1667.85 1459.48 1666.02 1455.94 Q1664.22 1452.37 1660.59 1452.37 M1660.59 1448.67 Q1666.4 1448.67 1669.45 1453.27 Q1672.53 1457.86 1672.53 1466.61 Q1672.53 1475.33 1669.45 1479.94 Q1666.4 1484.52 1660.59 1484.52 Q1654.77 1484.52 1651.7 1479.94 Q1648.64 1475.33 1648.64 1466.61 Q1648.64 1457.86 1651.7 1453.27 Q1654.77 1448.67 1660.59 1448.67 Z" fill="#000000" fill-rule="evenodd" fill-opacity="1" /><path clip-path="url(#clip420)" d="M2327.94 1479.92 L2335.58 1479.92 L2335.58 1453.55 L2327.27 1455.22 L2327.27 1450.96 L2335.53 1449.29 L2340.21 1449.29 L2340.21 1479.92 L2347.85 1479.92 L2347.85 1483.85 L2327.94 1483.85 L2327.94 1479.92 Z" fill="#000000" fill-rule="evenodd" fill-opacity="1" /><path clip-path="url(#clip420)" d="M2357.34 1449.29 L2375.7 1449.29 L2375.7 1453.23 L2361.62 1453.23 L2361.62 1461.7 Q2362.64 1461.35 2363.66 1461.19 Q2364.68 1461 2365.7 1461 Q2371.48 1461 2374.86 1464.18 Q2378.24 1467.35 2378.24 1472.76 Q2378.24 1478.34 2374.77 1481.44 Q2371.3 1484.52 2364.98 1484.52 Q2362.8 1484.52 2360.53 1484.15 Q2358.29 1483.78 2355.88 1483.04 L2355.88 1478.34 Q2357.96 1479.48 2360.19 1480.03 Q2362.41 1480.59 2364.89 1480.59 Q2368.89 1480.59 2371.23 1478.48 Q2373.57 1476.38 2373.57 1472.76 Q2373.57 1469.15 2371.23 1467.05 Q2368.89 1464.94 2364.89 1464.94 Q2363.01 1464.94 2361.14 1465.36 Q2359.28 1465.77 2357.34 1466.65 L2357.34 1449.29 Z" fill="#000000" fill-rule="evenodd" fill-opacity="1" /><path clip-path="url(#clip420)" d="M1090.9 1520.52 L1131.1 1520.52 L1131.1 1525.93 L1114.23 1525.93 L1114.23 1568.04 L1107.77 1568.04 L1107.77 1525.93 L1090.9 1525.93 L1090.9 1520.52 Z" fill="#000000" fill-rule="evenodd" fill-opacity="1" /><path clip-path="url(#clip420)" d="M1135.05 1532.4 L1140.9 1532.4 L1140.9 1568.04 L1135.05 1568.04 L1135.05 1532.4 M1135.05 1518.52 L1140.9 1518.52 L1140.9 1525.93 L1135.05 1525.93 L1135.05 1518.52 Z" fill="#000000" fill-rule="evenodd" fill-opacity="1" /><path clip-path="url(#clip420)" d="M1180.91 1539.24 Q1183.11 1535.29 1186.16 1533.41 Q1189.22 1531.54 1193.36 1531.54 Q1198.93 1531.54 1201.95 1535.45 Q1204.97 1539.33 1204.97 1546.53 L1204.97 1568.04 L1199.08 1568.04 L1199.08 1546.72 Q1199.08 1541.59 1197.27 1539.11 Q1195.46 1536.63 1191.73 1536.63 Q1187.18 1536.63 1184.54 1539.65 Q1181.9 1542.68 1181.9 1547.9 L1181.9 1568.04 L1176.01 1568.04 L1176.01 1546.72 Q1176.01 1541.56 1174.2 1539.11 Q1172.38 1536.63 1168.59 1536.63 Q1164.11 1536.63 1161.46 1539.68 Q1158.82 1542.71 1158.82 1547.9 L1158.82 1568.04 L1152.93 1568.04 L1152.93 1532.4 L1158.82 1532.4 L1158.82 1537.93 Q1160.83 1534.66 1163.63 1533.1 Q1166.43 1531.54 1170.28 1531.54 Q1174.16 1531.54 1176.87 1533.51 Q1179.61 1535.48 1180.91 1539.24 Z" fill="#000000" fill-rule="evenodd" fill-opacity="1" /><path clip-path="url(#clip420)" d="M1247.15 1548.76 L1247.15 1551.62 L1220.22 1551.62 Q1220.6 1557.67 1223.85 1560.85 Q1227.13 1564 1232.95 1564 Q1236.32 1564 1239.48 1563.17 Q1242.66 1562.35 1245.78 1560.69 L1245.78 1566.23 Q1242.63 1567.57 1239.32 1568.27 Q1236.01 1568.97 1232.6 1568.97 Q1224.07 1568.97 1219.07 1564 Q1214.11 1559.04 1214.11 1550.57 Q1214.11 1541.82 1218.82 1536.69 Q1223.56 1531.54 1231.58 1531.54 Q1238.78 1531.54 1242.94 1536.18 Q1247.15 1540.8 1247.15 1548.76 M1241.29 1547.04 Q1241.23 1542.23 1238.58 1539.37 Q1235.97 1536.5 1231.65 1536.5 Q1226.74 1536.5 1223.78 1539.27 Q1220.86 1542.04 1220.41 1547.07 L1241.29 1547.04 Z" fill="#000000" fill-rule="evenodd" fill-opacity="1" /><path clip-path="url(#clip420)" d="M1291.55 1518.58 Q1287.28 1525.9 1285.21 1533.06 Q1283.14 1540.23 1283.14 1547.58 Q1283.14 1554.93 1285.21 1562.16 Q1287.31 1569.35 1291.55 1576.64 L1286.45 1576.64 Q1281.68 1569.16 1279.29 1561.93 Q1276.94 1554.71 1276.94 1547.58 Q1276.94 1540.48 1279.29 1533.29 Q1281.65 1526.09 1286.45 1518.58 L1291.55 1518.58 Z" fill="#000000" fill-rule="evenodd" fill-opacity="1" /><path clip-path="url(#clip420)" d="M1317.74 1571.35 Q1315.26 1577.72 1312.9 1579.66 Q1310.55 1581.6 1306.6 1581.6 L1301.92 1581.6 L1301.92 1576.7 L1305.36 1576.7 Q1307.78 1576.7 1309.12 1575.56 Q1310.45 1574.41 1312.08 1570.14 L1313.13 1567.47 L1298.71 1532.4 L1304.91 1532.4 L1316.05 1560.28 L1327.19 1532.4 L1333.4 1532.4 L1317.74 1571.35 Z" fill="#000000" fill-rule="evenodd" fill-opacity="1" /><path clip-path="url(#clip420)" d="M1371.98 1548.76 L1371.98 1551.62 L1345.05 1551.62 Q1345.43 1557.67 1348.68 1560.85 Q1351.96 1564 1357.78 1564 Q1361.16 1564 1364.31 1563.17 Q1367.49 1562.35 1370.61 1560.69 L1370.61 1566.23 Q1367.46 1567.57 1364.15 1568.27 Q1360.84 1568.97 1357.43 1568.97 Q1348.9 1568.97 1343.9 1564 Q1338.94 1559.04 1338.94 1550.57 Q1338.94 1541.82 1343.65 1536.69 Q1348.39 1531.54 1356.41 1531.54 Q1363.61 1531.54 1367.78 1536.18 Q1371.98 1540.8 1371.98 1548.76 M1366.12 1547.04 Q1366.06 1542.23 1363.42 1539.37 Q1360.81 1536.5 1356.48 1536.5 Q1351.58 1536.5 1348.62 1539.27 Q1345.69 1542.04 1345.24 1547.07 L1366.12 1547.04 Z" fill="#000000" fill-rule="evenodd" fill-opacity="1" /><path clip-path="url(#clip420)" d="M1397.79 1550.12 Q1390.69 1550.12 1387.96 1551.75 Q1385.22 1553.37 1385.22 1557.29 Q1385.22 1560.4 1387.26 1562.25 Q1389.32 1564.07 1392.86 1564.07 Q1397.73 1564.07 1400.66 1560.63 Q1403.62 1557.16 1403.62 1551.43 L1403.62 1550.12 L1397.79 1550.12 M1409.47 1547.71 L1409.47 1568.04 L1403.62 1568.04 L1403.62 1562.63 Q1401.61 1565.88 1398.62 1567.44 Q1395.63 1568.97 1391.3 1568.97 Q1385.82 1568.97 1382.58 1565.91 Q1379.36 1562.82 1379.36 1557.67 Q1379.36 1551.65 1383.37 1548.6 Q1387.41 1545.54 1395.4 1545.54 L1403.62 1545.54 L1403.62 1544.97 Q1403.62 1540.93 1400.94 1538.73 Q1398.3 1536.5 1393.49 1536.5 Q1390.44 1536.5 1387.54 1537.23 Q1384.65 1537.97 1381.97 1539.43 L1381.97 1534.02 Q1385.19 1532.78 1388.21 1532.17 Q1391.23 1531.54 1394.1 1531.54 Q1401.83 1531.54 1405.65 1535.55 Q1409.47 1539.56 1409.47 1547.71 Z" fill="#000000" fill-rule="evenodd" fill-opacity="1" /><path clip-path="url(#clip420)" d="M1442.19 1537.87 Q1441.2 1537.3 1440.03 1537.04 Q1438.88 1536.76 1437.48 1536.76 Q1432.52 1536.76 1429.84 1540 Q1427.2 1543.22 1427.2 1549.27 L1427.2 1568.04 L1421.31 1568.04 L1421.31 1532.4 L1427.2 1532.4 L1427.2 1537.93 Q1429.05 1534.69 1432.01 1533.13 Q1434.97 1531.54 1439.2 1531.54 Q1439.8 1531.54 1440.54 1531.63 Q1441.27 1531.7 1442.16 1531.85 L1442.19 1537.87 Z" fill="#000000" fill-rule="evenodd" fill-opacity="1" /><path clip-path="url(#clip420)" d="M1471.06 1533.45 L1471.06 1538.98 Q1468.58 1537.71 1465.9 1537.07 Q1463.23 1536.44 1460.37 1536.44 Q1456 1536.44 1453.81 1537.77 Q1451.64 1539.11 1451.64 1541.79 Q1451.64 1543.82 1453.2 1545 Q1454.76 1546.15 1459.47 1547.2 L1461.48 1547.64 Q1467.72 1548.98 1470.33 1551.43 Q1472.97 1553.85 1472.97 1558.21 Q1472.97 1563.17 1469.02 1566.07 Q1465.11 1568.97 1458.23 1568.97 Q1455.37 1568.97 1452.25 1568.39 Q1449.16 1567.85 1445.72 1566.74 L1445.72 1560.69 Q1448.97 1562.38 1452.12 1563.24 Q1455.27 1564.07 1458.36 1564.07 Q1462.5 1564.07 1464.73 1562.66 Q1466.95 1561.23 1466.95 1558.65 Q1466.95 1556.27 1465.33 1554.99 Q1463.74 1553.72 1458.3 1552.54 L1456.26 1552.07 Q1450.82 1550.92 1448.4 1548.56 Q1445.98 1546.18 1445.98 1542.04 Q1445.98 1537.01 1449.54 1534.27 Q1453.11 1531.54 1459.67 1531.54 Q1462.91 1531.54 1465.78 1532.01 Q1468.64 1532.49 1471.06 1533.45 Z" fill="#000000" fill-rule="evenodd" fill-opacity="1" /><path clip-path="url(#clip420)" d="M1481.37 1518.58 L1486.46 1518.58 Q1491.24 1526.09 1493.59 1533.29 Q1495.98 1540.48 1495.98 1547.58 Q1495.98 1554.71 1493.59 1561.93 Q1491.24 1569.16 1486.46 1576.64 L1481.37 1576.64 Q1485.61 1569.35 1487.67 1562.16 Q1489.77 1554.93 1489.77 1547.58 Q1489.77 1540.23 1487.67 1533.06 Q1485.61 1525.9 1481.37 1518.58 Z" fill="#000000" fill-rule="evenodd" fill-opacity="1" /><polyline clip-path="url(#clip422)" style="stroke:#000000; stroke-linecap:butt; stroke-linejoin:round; stroke-width:2; stroke-opacity:0.1; fill:none" points="
  234.125,1406.67 2352.76,1406.67 
  "/>
<polyline clip-path="url(#clip422)" style="stroke:#000000; stroke-linecap:butt; stroke-linejoin:round; stroke-width:2; stroke-opacity:0.1; fill:none" points="
  234.125,1069.79 2352.76,1069.79 
  "/>
<polyline clip-path="url(#clip422)" style="stroke:#000000; stroke-linecap:butt; stroke-linejoin:round; stroke-width:2; stroke-opacity:0.1; fill:none" points="
  234.125,732.913 2352.76,732.913 
  "/>
<polyline clip-path="url(#clip422)" style="stroke:#000000; stroke-linecap:butt; stroke-linejoin:round; stroke-width:2; stroke-opacity:0.1; fill:none" points="
  234.125,396.036 2352.76,396.036 
  "/>
<polyline clip-path="url(#clip420)" style="stroke:#000000; stroke-linecap:butt; stroke-linejoin:round; stroke-width:4; stroke-opacity:1; fill:none" points="
  234.125,1423.18 234.125,123.472 
  "/>
<polyline clip-path="url(#clip420)" style="stroke:#000000; stroke-linecap:butt; stroke-linejoin:round; stroke-width:4; stroke-opacity:1; fill:none" points="
  234.125,1406.67 259.549,1406.67 
  "/>
<polyline clip-path="url(#clip420)" style="stroke:#000000; stroke-linecap:butt; stroke-linejoin:round; stroke-width:4; stroke-opacity:1; fill:none" points="
  234.125,1069.79 259.549,1069.79 
  "/>
<polyline clip-path="url(#clip420)" style="stroke:#000000; stroke-linecap:butt; stroke-linejoin:round; stroke-width:4; stroke-opacity:1; fill:none" points="
  234.125,732.913 259.549,732.913 
  "/>
<polyline clip-path="url(#clip420)" style="stroke:#000000; stroke-linecap:butt; stroke-linejoin:round; stroke-width:4; stroke-opacity:1; fill:none" points="
  234.125,396.036 259.549,396.036 
  "/>
<path clip-path="url(#clip420)" d="M186.181 1392.46 Q182.57 1392.46 180.741 1396.03 Q178.936 1399.57 178.936 1406.7 Q178.936 1413.81 180.741 1417.37 Q182.57 1420.91 186.181 1420.91 Q189.815 1420.91 191.621 1417.37 Q193.45 1413.81 193.45 1406.7 Q193.45 1399.57 191.621 1396.03 Q189.815 1392.46 186.181 1392.46 M186.181 1388.76 Q191.991 1388.76 195.047 1393.37 Q198.125 1397.95 198.125 1406.7 Q198.125 1415.43 195.047 1420.03 Q191.991 1424.62 186.181 1424.62 Q180.371 1424.62 177.292 1420.03 Q174.237 1415.43 174.237 1406.7 Q174.237 1397.95 177.292 1393.37 Q180.371 1388.76 186.181 1388.76 Z" fill="#000000" fill-rule="evenodd" fill-opacity="1" /><path clip-path="url(#clip420)" d="M116.668 1083.13 L124.306 1083.13 L124.306 1056.77 L115.996 1058.43 L115.996 1054.18 L124.26 1052.51 L128.936 1052.51 L128.936 1083.13 L136.575 1083.13 L136.575 1087.07 L116.668 1087.07 L116.668 1083.13 Z" fill="#000000" fill-rule="evenodd" fill-opacity="1" /><path clip-path="url(#clip420)" d="M156.019 1055.59 Q152.408 1055.59 150.579 1059.15 Q148.774 1062.69 148.774 1069.82 Q148.774 1076.93 150.579 1080.5 Q152.408 1084.04 156.019 1084.04 Q159.653 1084.04 161.459 1080.5 Q163.288 1076.93 163.288 1069.82 Q163.288 1062.69 161.459 1059.15 Q159.653 1055.59 156.019 1055.59 M156.019 1051.88 Q161.829 1051.88 164.885 1056.49 Q167.964 1061.07 167.964 1069.82 Q167.964 1078.55 164.885 1083.16 Q161.829 1087.74 156.019 1087.74 Q150.209 1087.74 147.13 1083.16 Q144.075 1078.55 144.075 1069.82 Q144.075 1061.07 147.13 1056.49 Q150.209 1051.88 156.019 1051.88 Z" fill="#000000" fill-rule="evenodd" fill-opacity="1" /><path clip-path="url(#clip420)" d="M186.181 1055.59 Q182.57 1055.59 180.741 1059.15 Q178.936 1062.69 178.936 1069.82 Q178.936 1076.93 180.741 1080.5 Q182.57 1084.04 186.181 1084.04 Q189.815 1084.04 191.621 1080.5 Q193.45 1076.93 193.45 1069.82 Q193.45 1062.69 191.621 1059.15 Q189.815 1055.59 186.181 1055.59 M186.181 1051.88 Q191.991 1051.88 195.047 1056.49 Q198.125 1061.07 198.125 1069.82 Q198.125 1078.55 195.047 1083.16 Q191.991 1087.74 186.181 1087.74 Q180.371 1087.74 177.292 1083.16 Q174.237 1078.55 174.237 1069.82 Q174.237 1061.07 177.292 1056.49 Q180.371 1051.88 186.181 1051.88 Z" fill="#000000" fill-rule="evenodd" fill-opacity="1" /><path clip-path="url(#clip420)" d="M119.885 746.258 L136.204 746.258 L136.204 750.193 L114.26 750.193 L114.26 746.258 Q116.922 743.503 121.505 738.873 Q126.112 734.221 127.292 732.878 Q129.538 730.355 130.417 728.619 Q131.32 726.86 131.32 725.17 Q131.32 722.415 129.376 720.679 Q127.455 718.943 124.353 718.943 Q122.154 718.943 119.7 719.707 Q117.269 720.471 114.492 722.022 L114.492 717.299 Q117.316 716.165 119.769 715.586 Q122.223 715.008 124.26 715.008 Q129.63 715.008 132.825 717.693 Q136.019 720.378 136.019 724.869 Q136.019 726.998 135.209 728.92 Q134.422 730.818 132.316 733.41 Q131.737 734.082 128.635 737.299 Q125.533 740.494 119.885 746.258 Z" fill="#000000" fill-rule="evenodd" fill-opacity="1" /><path clip-path="url(#clip420)" d="M156.019 718.711 Q152.408 718.711 150.579 722.276 Q148.774 725.818 148.774 732.948 Q148.774 740.054 150.579 743.619 Q152.408 747.16 156.019 747.16 Q159.653 747.16 161.459 743.619 Q163.288 740.054 163.288 732.948 Q163.288 725.818 161.459 722.276 Q159.653 718.711 156.019 718.711 M156.019 715.008 Q161.829 715.008 164.885 719.614 Q167.964 724.198 167.964 732.948 Q167.964 741.674 164.885 746.281 Q161.829 750.864 156.019 750.864 Q150.209 750.864 147.13 746.281 Q144.075 741.674 144.075 732.948 Q144.075 724.198 147.13 719.614 Q150.209 715.008 156.019 715.008 Z" fill="#000000" fill-rule="evenodd" fill-opacity="1" /><path clip-path="url(#clip420)" d="M186.181 718.711 Q182.57 718.711 180.741 722.276 Q178.936 725.818 178.936 732.948 Q178.936 740.054 180.741 743.619 Q182.57 747.16 186.181 747.16 Q189.815 747.16 191.621 743.619 Q193.45 740.054 193.45 732.948 Q193.45 725.818 191.621 722.276 Q189.815 718.711 186.181 718.711 M186.181 715.008 Q191.991 715.008 195.047 719.614 Q198.125 724.198 198.125 732.948 Q198.125 741.674 195.047 746.281 Q191.991 750.864 186.181 750.864 Q180.371 750.864 177.292 746.281 Q174.237 741.674 174.237 732.948 Q174.237 724.198 177.292 719.614 Q180.371 715.008 186.181 715.008 Z" fill="#000000" fill-rule="evenodd" fill-opacity="1" /><path clip-path="url(#clip420)" d="M130.024 394.682 Q133.38 395.4 135.255 397.668 Q137.154 399.937 137.154 403.27 Q137.154 408.386 133.635 411.187 Q130.117 413.988 123.635 413.988 Q121.459 413.988 119.144 413.548 Q116.853 413.131 114.399 412.275 L114.399 407.761 Q116.343 408.895 118.658 409.474 Q120.973 410.053 123.496 410.053 Q127.894 410.053 130.186 408.317 Q132.501 406.58 132.501 403.27 Q132.501 400.215 130.348 398.502 Q128.218 396.766 124.399 396.766 L120.371 396.766 L120.371 392.923 L124.584 392.923 Q128.033 392.923 129.862 391.557 Q131.691 390.168 131.691 387.576 Q131.691 384.914 129.792 383.502 Q127.917 382.067 124.399 382.067 Q122.478 382.067 120.279 382.483 Q118.08 382.9 115.441 383.78 L115.441 379.613 Q118.103 378.872 120.418 378.502 Q122.755 378.131 124.816 378.131 Q130.14 378.131 133.242 380.562 Q136.343 382.969 136.343 387.09 Q136.343 389.96 134.7 391.951 Q133.056 393.918 130.024 394.682 Z" fill="#000000" fill-rule="evenodd" fill-opacity="1" /><path clip-path="url(#clip420)" d="M156.019 381.835 Q152.408 381.835 150.579 385.4 Q148.774 388.942 148.774 396.071 Q148.774 403.178 150.579 406.742 Q152.408 410.284 156.019 410.284 Q159.653 410.284 161.459 406.742 Q163.288 403.178 163.288 396.071 Q163.288 388.942 161.459 385.4 Q159.653 381.835 156.019 381.835 M156.019 378.131 Q161.829 378.131 164.885 382.738 Q167.964 387.321 167.964 396.071 Q167.964 404.798 164.885 409.404 Q161.829 413.988 156.019 413.988 Q150.209 413.988 147.13 409.404 Q144.075 404.798 144.075 396.071 Q144.075 387.321 147.13 382.738 Q150.209 378.131 156.019 378.131 Z" fill="#000000" fill-rule="evenodd" fill-opacity="1" /><path clip-path="url(#clip420)" d="M186.181 381.835 Q182.57 381.835 180.741 385.4 Q178.936 388.942 178.936 396.071 Q178.936 403.178 180.741 406.742 Q182.57 410.284 186.181 410.284 Q189.815 410.284 191.621 406.742 Q193.45 403.178 193.45 396.071 Q193.45 388.942 191.621 385.4 Q189.815 381.835 186.181 381.835 M186.181 378.131 Q191.991 378.131 195.047 382.738 Q198.125 387.321 198.125 396.071 Q198.125 404.798 195.047 409.404 Q191.991 413.988 186.181 413.988 Q180.371 413.988 177.292 409.404 Q174.237 404.798 174.237 396.071 Q174.237 387.321 177.292 382.738 Q180.371 378.131 186.181 378.131 Z" fill="#000000" fill-rule="evenodd" fill-opacity="1" /><path clip-path="url(#clip420)" d="M22.818 968.101 L46.4666 976.822 L46.4666 959.348 L22.818 968.101 M16.4842 971.729 L16.4842 964.44 L64.0042 946.33 L64.0042 953.014 L51.8138 957.343 L51.8138 978.763 L64.0042 983.092 L64.0042 989.871 L16.4842 971.729 Z" fill="#000000" fill-rule="evenodd" fill-opacity="1" /><path clip-path="url(#clip420)" d="M29.7248 915.138 L35.1993 915.138 Q33.8307 917.621 33.1623 920.135 Q32.4621 922.618 32.4621 925.164 Q32.4621 930.861 36.0905 934.012 Q39.6872 937.163 46.212 937.163 Q52.7369 937.163 56.3653 934.012 Q59.9619 930.861 59.9619 925.164 Q59.9619 922.618 59.2935 920.135 Q58.5933 917.621 57.2247 915.138 L62.6355 915.138 Q63.7814 917.589 64.3543 920.231 Q64.9272 922.841 64.9272 925.801 Q64.9272 933.853 59.8664 938.596 Q54.8057 943.338 46.212 943.338 Q37.491 943.338 32.4939 938.564 Q27.4968 933.758 27.4968 925.419 Q27.4968 922.713 28.0697 920.135 Q28.6108 917.557 29.7248 915.138 Z" fill="#000000" fill-rule="evenodd" fill-opacity="1" /><path clip-path="url(#clip420)" d="M18.2347 899.16 L28.3562 899.16 L28.3562 887.097 L32.9077 887.097 L32.9077 899.16 L52.2594 899.16 Q56.6199 899.16 57.8613 897.982 Q59.1026 896.773 59.1026 893.113 L59.1026 887.097 L64.0042 887.097 L64.0042 893.113 Q64.0042 899.892 61.4897 902.47 Q58.9434 905.048 52.2594 905.048 L32.9077 905.048 L32.9077 909.345 L28.3562 909.345 L28.3562 905.048 L18.2347 905.048 L18.2347 899.16 Z" fill="#000000" fill-rule="evenodd" fill-opacity="1" /><path clip-path="url(#clip420)" d="M28.3562 879.395 L28.3562 873.538 L64.0042 873.538 L64.0042 879.395 L28.3562 879.395 M14.479 879.395 L14.479 873.538 L21.895 873.538 L21.895 879.395 L14.479 879.395 Z" fill="#000000" fill-rule="evenodd" fill-opacity="1" /><path clip-path="url(#clip420)" d="M28.3562 865.486 L28.3562 859.279 L58.275 848.139 L28.3562 836.999 L28.3562 830.792 L64.0042 844.16 L64.0042 852.118 L28.3562 865.486 Z" fill="#000000" fill-rule="evenodd" fill-opacity="1" /><path clip-path="url(#clip420)" d="M28.3562 822.708 L28.3562 816.852 L64.0042 816.852 L64.0042 822.708 L28.3562 822.708 M14.479 822.708 L14.479 816.852 L21.895 816.852 L21.895 822.708 L14.479 822.708 Z" fill="#000000" fill-rule="evenodd" fill-opacity="1" /><path clip-path="url(#clip420)" d="M18.2347 798.805 L28.3562 798.805 L28.3562 786.742 L32.9077 786.742 L32.9077 798.805 L52.2594 798.805 Q56.6199 798.805 57.8613 797.627 Q59.1026 796.418 59.1026 792.757 L59.1026 786.742 L64.0042 786.742 L64.0042 792.757 Q64.0042 799.537 61.4897 802.115 Q58.9434 804.693 52.2594 804.693 L32.9077 804.693 L32.9077 808.99 L28.3562 808.99 L28.3562 804.693 L18.2347 804.693 L18.2347 798.805 Z" fill="#000000" fill-rule="evenodd" fill-opacity="1" /><path clip-path="url(#clip420)" d="M67.3143 764.207 Q73.68 766.69 75.6216 769.045 Q77.5631 771.4 77.5631 775.347 L77.5631 780.026 L72.6615 780.026 L72.6615 776.588 Q72.6615 774.169 71.5157 772.833 Q70.3699 771.496 66.1048 769.873 L63.4312 768.822 L28.3562 783.241 L28.3562 777.034 L56.238 765.894 L28.3562 754.754 L28.3562 748.547 L67.3143 764.207 Z" fill="#000000" fill-rule="evenodd" fill-opacity="1" /><path clip-path="url(#clip420)" d="M14.5426 705.674 Q21.8632 709.939 29.0246 712.008 Q36.186 714.077 43.5384 714.077 Q50.8908 714.077 58.1159 712.008 Q65.3091 709.908 72.5979 705.674 L72.5979 710.767 Q65.1182 715.541 57.8931 717.928 Q50.668 720.284 43.5384 720.284 Q36.4406 720.284 29.2474 717.928 Q22.0542 715.573 14.5426 710.767 L14.5426 705.674 Z" fill="#000000" fill-rule="evenodd" fill-opacity="1" /><path clip-path="url(#clip420)" d="M14.479 694.534 L14.479 688.646 L43.7294 688.646 L28.3562 671.172 L28.3562 663.693 L45.0344 682.599 L64.0042 662.897 L64.0042 670.536 L46.5939 688.646 L64.0042 688.646 L64.0042 694.534 L14.479 694.534 Z" fill="#000000" fill-rule="evenodd" fill-opacity="1" /><path clip-path="url(#clip420)" d="M41.3104 649.879 L58.7206 649.879 L58.7206 639.567 Q58.7206 634.379 56.5881 631.896 Q54.4238 629.381 49.9996 629.381 Q45.5436 629.381 43.4429 631.896 Q41.3104 634.379 41.3104 639.567 L41.3104 649.879 M21.7677 649.879 L36.0905 649.879 L36.0905 640.362 Q36.0905 635.652 34.34 633.36 Q32.5576 631.037 28.9291 631.037 Q25.3325 631.037 23.5501 633.36 Q21.7677 635.652 21.7677 640.362 L21.7677 649.879 M16.4842 656.308 L16.4842 639.885 Q16.4842 632.532 19.5397 628.554 Q22.5952 624.575 28.2289 624.575 Q32.5894 624.575 35.1675 626.612 Q37.7456 628.649 38.3822 632.596 Q39.4007 627.854 42.6472 625.244 Q45.8619 622.602 50.6998 622.602 Q57.0655 622.602 60.5348 626.931 Q64.0042 631.259 64.0042 639.248 L64.0042 656.308 L16.4842 656.308 Z" fill="#000000" fill-rule="evenodd" fill-opacity="1" /><path clip-path="url(#clip420)" d="M46.212 608.343 Q52.6732 608.343 56.3653 605.701 Q60.0256 603.027 60.0256 598.38 Q60.0256 593.733 56.3653 591.06 Q52.6732 588.386 46.212 588.386 Q39.7508 588.386 36.0905 591.06 Q32.3984 593.733 32.3984 598.38 Q32.3984 603.027 36.0905 605.701 Q39.7508 608.343 46.212 608.343 M58.657 588.386 Q61.8398 590.232 63.3994 593.065 Q64.9272 595.866 64.9272 599.813 Q64.9272 606.274 59.771 610.348 Q54.6147 614.39 46.212 614.39 Q37.8093 614.39 32.6531 610.348 Q27.4968 606.274 27.4968 599.813 Q27.4968 595.866 29.0564 593.065 Q30.5842 590.232 33.7671 588.386 L28.3562 588.386 L28.3562 582.53 L77.5631 582.53 L77.5631 588.386 L58.657 588.386 Z" fill="#000000" fill-rule="evenodd" fill-opacity="1" /><path clip-path="url(#clip420)" d="M14.5426 571.39 L14.5426 566.297 Q22.0542 561.523 29.2474 559.168 Q36.4406 556.781 43.5384 556.781 Q50.668 556.781 57.8931 559.168 Q65.1182 561.523 72.5979 566.297 L72.5979 571.39 Q65.3091 567.157 58.1159 565.088 Q50.8908 562.987 43.5384 562.987 Q36.186 562.987 29.0246 565.088 Q21.8632 567.157 14.5426 571.39 Z" fill="#000000" fill-rule="evenodd" fill-opacity="1" /><path clip-path="url(#clip420)" d="M789.407 18.8205 L789.407 65.8515 L799.291 65.8515 Q811.808 65.8515 817.601 60.1802 Q823.435 54.509 823.435 42.2752 Q823.435 30.1225 817.601 24.4918 Q811.808 18.8205 799.291 18.8205 L789.407 18.8205 M781.224 12.096 L798.035 12.096 Q815.616 12.096 823.84 19.4281 Q832.063 26.7198 832.063 42.2752 Q832.063 57.9117 823.799 65.2439 Q815.535 72.576 798.035 72.576 L781.224 72.576 L781.224 12.096 Z" fill="#000000" fill-rule="evenodd" fill-opacity="1" /><path clip-path="url(#clip420)" d="M883.59 48.0275 L883.59 51.6733 L849.32 51.6733 Q849.806 59.3701 853.938 63.421 Q858.11 67.4314 865.523 67.4314 Q869.817 67.4314 873.828 66.3781 Q877.879 65.3249 881.849 63.2184 L881.849 70.267 Q877.838 71.9684 873.625 72.8596 Q869.412 73.7508 865.078 73.7508 Q854.221 73.7508 847.861 67.4314 Q841.542 61.1119 841.542 50.3365 Q841.542 39.1965 847.537 32.6746 Q853.573 26.1121 863.782 26.1121 Q872.937 26.1121 878.243 32.0264 Q883.59 37.9003 883.59 48.0275 M876.137 45.84 Q876.056 39.7232 872.694 36.0774 Q869.372 32.4315 863.863 32.4315 Q857.624 32.4315 853.857 35.9558 Q850.13 39.4801 849.563 45.8805 L876.137 45.84 Z" fill="#000000" fill-rule="evenodd" fill-opacity="1" /><path clip-path="url(#clip420)" d="M928.474 28.9478 L928.474 35.9153 Q925.315 34.1734 922.115 33.3227 Q918.955 32.4315 915.714 32.4315 Q908.463 32.4315 904.453 37.0496 Q900.442 41.6271 900.442 49.9314 Q900.442 58.2358 904.453 62.8538 Q908.463 67.4314 915.714 67.4314 Q918.955 67.4314 922.115 66.5807 Q925.315 65.6895 928.474 63.9476 L928.474 70.8341 Q925.355 72.2924 921.993 73.0216 Q918.671 73.7508 914.904 73.7508 Q904.655 73.7508 898.619 67.3098 Q892.583 60.8689 892.583 49.9314 Q892.583 38.832 898.66 32.472 Q904.777 26.1121 915.39 26.1121 Q918.833 26.1121 922.115 26.8413 Q925.396 27.5299 928.474 28.9478 Z" fill="#000000" fill-rule="evenodd" fill-opacity="1" /><path clip-path="url(#clip420)" d="M962.056 49.7694 Q953.023 49.7694 949.539 51.8354 Q946.055 53.9013 946.055 58.8839 Q946.055 62.8538 948.648 65.2034 Q951.281 67.5124 955.778 67.5124 Q961.975 67.5124 965.702 63.1374 Q969.47 58.7219 969.47 51.4303 L969.47 49.7694 L962.056 49.7694 M976.923 46.6907 L976.923 72.576 L969.47 72.576 L969.47 65.6895 Q966.918 69.8214 963.11 71.8063 Q959.302 73.7508 953.793 73.7508 Q946.825 73.7508 942.693 69.8619 Q938.602 65.9325 938.602 59.3701 Q938.602 51.7138 943.706 47.825 Q948.851 43.9361 959.018 43.9361 L969.47 43.9361 L969.47 43.2069 Q969.47 38.0623 966.067 35.2672 Q962.705 32.4315 956.588 32.4315 Q952.699 32.4315 949.013 33.3632 Q945.326 34.295 941.923 36.1584 L941.923 29.2718 Q946.015 27.692 949.863 26.9223 Q953.712 26.1121 957.357 26.1121 Q967.201 26.1121 972.062 31.2163 Q976.923 36.3204 976.923 46.6907 Z" fill="#000000" fill-rule="evenodd" fill-opacity="1" /><path clip-path="url(#clip420)" d="M1011.15 76.7889 Q1007.99 84.8907 1005 87.3618 Q1002 89.8329 996.975 89.8329 L991.02 89.8329 L991.02 83.5945 L995.395 83.5945 Q998.474 83.5945 1000.18 82.1361 Q1001.88 80.6778 1003.94 75.2496 L1005.28 71.8468 L986.929 27.2059 L994.828 27.2059 L1009.01 62.6918 L1023.18 27.2059 L1031.08 27.2059 L1011.15 76.7889 Z" fill="#000000" fill-rule="evenodd" fill-opacity="1" /><path clip-path="url(#clip420)" d="M1085.33 32.4315 Q1079.33 32.4315 1075.85 37.1306 Q1072.36 41.7891 1072.36 49.9314 Q1072.36 58.0738 1075.81 62.7728 Q1079.29 67.4314 1085.33 67.4314 Q1091.28 67.4314 1094.76 62.7323 Q1098.25 58.0333 1098.25 49.9314 Q1098.25 41.8701 1094.76 37.1711 Q1091.28 32.4315 1085.33 32.4315 M1085.33 26.1121 Q1095.05 26.1121 1100.6 32.4315 Q1106.15 38.7509 1106.15 49.9314 Q1106.15 61.0714 1100.6 67.4314 Q1095.05 73.7508 1085.33 73.7508 Q1075.56 73.7508 1070.01 67.4314 Q1064.5 61.0714 1064.5 49.9314 Q1064.5 38.7509 1070.01 32.4315 Q1075.56 26.1121 1085.33 26.1121 Z" fill="#000000" fill-rule="evenodd" fill-opacity="1" /><path clip-path="url(#clip420)" d="M1141.47 9.54393 L1141.47 15.7418 L1134.34 15.7418 Q1130.33 15.7418 1128.75 17.3622 Q1127.21 18.9825 1127.21 23.1955 L1127.21 27.2059 L1139.49 27.2059 L1139.49 32.9987 L1127.21 32.9987 L1127.21 72.576 L1119.72 72.576 L1119.72 32.9987 L1112.59 32.9987 L1112.59 27.2059 L1119.72 27.2059 L1119.72 24.0462 Q1119.72 16.471 1123.24 13.0277 Q1126.77 9.54393 1134.42 9.54393 L1141.47 9.54393 Z" fill="#000000" fill-rule="evenodd" fill-opacity="1" /><path clip-path="url(#clip420)" d="M1181.45 14.324 L1181.45 27.2059 L1196.81 27.2059 L1196.81 32.9987 L1181.45 32.9987 L1181.45 57.6282 Q1181.45 63.1779 1182.95 64.7578 Q1184.49 66.3376 1189.15 66.3376 L1196.81 66.3376 L1196.81 72.576 L1189.15 72.576 Q1180.52 72.576 1177.24 69.3758 Q1173.96 66.1351 1173.96 57.6282 L1173.96 32.9987 L1168.49 32.9987 L1168.49 27.2059 L1173.96 27.2059 L1173.96 14.324 L1181.45 14.324 Z" fill="#000000" fill-rule="evenodd" fill-opacity="1" /><path clip-path="url(#clip420)" d="M1244.32 45.1919 L1244.32 72.576 L1236.87 72.576 L1236.87 45.4349 Q1236.87 38.994 1234.36 35.7938 Q1231.85 32.5936 1226.82 32.5936 Q1220.79 32.5936 1217.3 36.4419 Q1213.82 40.2903 1213.82 46.9338 L1213.82 72.576 L1206.33 72.576 L1206.33 9.54393 L1213.82 9.54393 L1213.82 34.2544 Q1216.49 30.163 1220.1 28.1376 Q1223.74 26.1121 1228.48 26.1121 Q1236.3 26.1121 1240.31 30.9732 Q1244.32 35.7938 1244.32 45.1919 Z" fill="#000000" fill-rule="evenodd" fill-opacity="1" /><path clip-path="url(#clip420)" d="M1298 48.0275 L1298 51.6733 L1263.73 51.6733 Q1264.21 59.3701 1268.35 63.421 Q1272.52 67.4314 1279.93 67.4314 Q1284.22 67.4314 1288.24 66.3781 Q1292.29 65.3249 1296.26 63.2184 L1296.26 70.267 Q1292.25 71.9684 1288.03 72.8596 Q1283.82 73.7508 1279.49 73.7508 Q1268.63 73.7508 1262.27 67.4314 Q1255.95 61.1119 1255.95 50.3365 Q1255.95 39.1965 1261.94 32.6746 Q1267.98 26.1121 1278.19 26.1121 Q1287.34 26.1121 1292.65 32.0264 Q1298 37.9003 1298 48.0275 M1290.54 45.84 Q1290.46 39.7232 1287.1 36.0774 Q1283.78 32.4315 1278.27 32.4315 Q1272.03 32.4315 1268.26 35.9558 Q1264.54 39.4801 1263.97 45.8805 L1290.54 45.84 Z" fill="#000000" fill-rule="evenodd" fill-opacity="1" /><path clip-path="url(#clip420)" d="M1339.64 40.8979 L1356.82 40.8979 L1356.82 45.516 L1332.59 45.516 L1332.59 41.06 Q1333.97 39.8042 1336.52 37.5357 Q1350.46 25.1804 1350.46 21.3726 Q1350.46 18.699 1348.35 17.0786 Q1346.24 15.4177 1342.8 15.4177 Q1340.69 15.4177 1338.22 16.1469 Q1335.75 16.8356 1332.84 18.2534 L1332.84 13.2708 Q1335.95 12.1365 1338.63 11.5694 Q1341.34 11.0023 1343.65 11.0023 Q1349.53 11.0023 1353.05 13.6759 Q1356.57 16.3494 1356.57 20.7244 Q1356.57 26.3552 1343.17 37.8598 Q1340.9 39.8042 1339.64 40.8979 Z" fill="#000000" fill-rule="evenodd" fill-opacity="1" /><path clip-path="url(#clip420)" d="M1372.9 40.8979 L1390.07 40.8979 L1390.07 45.516 L1365.85 45.516 L1365.85 41.06 Q1367.23 39.8042 1369.78 37.5357 Q1383.72 25.1804 1383.72 21.3726 Q1383.72 18.699 1381.61 17.0786 Q1379.5 15.4177 1376.06 15.4177 Q1373.95 15.4177 1371.48 16.1469 Q1369.01 16.8356 1366.09 18.2534 L1366.09 13.2708 Q1369.21 12.1365 1371.89 11.5694 Q1374.6 11.0023 1376.91 11.0023 Q1382.78 11.0023 1386.31 13.6759 Q1389.83 16.3494 1389.83 20.7244 Q1389.83 26.3552 1376.42 37.8598 Q1374.15 39.8042 1372.9 40.8979 Z" fill="#000000" fill-rule="evenodd" fill-opacity="1" /><path clip-path="url(#clip420)" d="M1403.44 12.096 L1414.46 12.096 L1441.28 62.6918 L1441.28 12.096 L1449.22 12.096 L1449.22 72.576 L1438.2 72.576 L1411.38 21.9802 L1411.38 72.576 L1403.44 72.576 L1403.44 12.096 Z" fill="#000000" fill-rule="evenodd" fill-opacity="1" /><path clip-path="url(#clip420)" d="M1485.8 49.7694 Q1476.76 49.7694 1473.28 51.8354 Q1469.8 53.9013 1469.8 58.8839 Q1469.8 62.8538 1472.39 65.2034 Q1475.02 67.5124 1479.52 67.5124 Q1485.72 67.5124 1489.44 63.1374 Q1493.21 58.7219 1493.21 51.4303 L1493.21 49.7694 L1485.8 49.7694 M1500.66 46.6907 L1500.66 72.576 L1493.21 72.576 L1493.21 65.6895 Q1490.66 69.8214 1486.85 71.8063 Q1483.04 73.7508 1477.53 73.7508 Q1470.57 73.7508 1466.43 69.8619 Q1462.34 65.9325 1462.34 59.3701 Q1462.34 51.7138 1467.45 47.825 Q1472.59 43.9361 1482.76 43.9361 L1493.21 43.9361 L1493.21 43.2069 Q1493.21 38.0623 1489.81 35.2672 Q1486.45 32.4315 1480.33 32.4315 Q1476.44 32.4315 1472.75 33.3632 Q1469.07 34.295 1465.66 36.1584 L1465.66 29.2718 Q1469.76 27.692 1473.6 26.9223 Q1477.45 26.1121 1481.1 26.1121 Q1490.94 26.1121 1495.8 31.2163 Q1500.66 36.3204 1500.66 46.6907 Z" fill="#000000" fill-rule="evenodd" fill-opacity="1" /><path clip-path="url(#clip420)" d="M1571.31 28.5427 L1571.31 35.5912 Q1568.15 33.9709 1564.75 33.1607 Q1561.35 32.3505 1557.7 32.3505 Q1552.15 32.3505 1549.36 34.0519 Q1546.6 35.7533 1546.6 39.156 Q1546.6 41.7486 1548.59 43.2475 Q1550.57 44.7058 1556.57 46.0426 L1559.12 46.6097 Q1567.06 48.3111 1570.38 51.4303 Q1573.74 54.509 1573.74 60.0587 Q1573.74 66.3781 1568.72 70.0644 Q1563.74 73.7508 1554.99 73.7508 Q1551.34 73.7508 1547.37 73.0216 Q1543.44 72.3329 1539.07 70.9151 L1539.07 63.2184 Q1543.2 65.3654 1547.21 66.4591 Q1551.22 67.5124 1555.15 67.5124 Q1560.42 67.5124 1563.25 65.73 Q1566.09 63.9071 1566.09 60.6258 Q1566.09 57.5877 1564.02 55.9673 Q1562 54.3469 1555.07 52.8481 L1552.48 52.2405 Q1545.55 50.7821 1542.47 47.7845 Q1539.39 44.7463 1539.39 39.4801 Q1539.39 33.0797 1543.93 29.5959 Q1548.47 26.1121 1556.81 26.1121 Q1560.94 26.1121 1564.59 26.7198 Q1568.23 27.3274 1571.31 28.5427 Z" fill="#000000" fill-rule="evenodd" fill-opacity="1" /><path clip-path="url(#clip420)" d="M1603.19 32.4315 Q1597.2 32.4315 1593.71 37.1306 Q1590.23 41.7891 1590.23 49.9314 Q1590.23 58.0738 1593.67 62.7728 Q1597.16 67.4314 1603.19 67.4314 Q1609.15 67.4314 1612.63 62.7323 Q1616.12 58.0333 1616.12 49.9314 Q1616.12 41.8701 1612.63 37.1711 Q1609.15 32.4315 1603.19 32.4315 M1603.19 26.1121 Q1612.92 26.1121 1618.46 32.4315 Q1624.01 38.7509 1624.01 49.9314 Q1624.01 61.0714 1618.46 67.4314 Q1612.92 73.7508 1603.19 73.7508 Q1593.43 73.7508 1587.88 67.4314 Q1582.37 61.0714 1582.37 49.9314 Q1582.37 38.7509 1587.88 32.4315 Q1593.43 26.1121 1603.19 26.1121 Z" fill="#000000" fill-rule="evenodd" fill-opacity="1" /><path clip-path="url(#clip420)" d="M1635.6 54.671 L1635.6 27.2059 L1643.05 27.2059 L1643.05 54.3874 Q1643.05 60.8284 1645.57 64.0691 Q1648.08 67.2693 1653.1 67.2693 Q1659.14 67.2693 1662.62 63.421 Q1666.14 59.5726 1666.14 52.9291 L1666.14 27.2059 L1673.6 27.2059 L1673.6 72.576 L1666.14 72.576 L1666.14 65.6084 Q1663.43 69.7404 1659.82 71.7658 Q1656.26 73.7508 1651.52 73.7508 Q1643.7 73.7508 1639.65 68.8897 Q1635.6 64.0286 1635.6 54.671 M1654.36 26.1121 L1654.36 26.1121 Z" fill="#000000" fill-rule="evenodd" fill-opacity="1" /><path clip-path="url(#clip420)" d="M1715.24 34.1734 Q1713.99 33.4443 1712.49 33.1202 Q1711.03 32.7556 1709.25 32.7556 Q1702.93 32.7556 1699.52 36.8875 Q1696.16 40.9789 1696.16 48.6757 L1696.16 72.576 L1688.67 72.576 L1688.67 27.2059 L1696.16 27.2059 L1696.16 34.2544 Q1698.51 30.1225 1702.28 28.1376 Q1706.05 26.1121 1711.43 26.1121 Q1712.2 26.1121 1713.13 26.2337 Q1714.07 26.3147 1715.2 26.5172 L1715.24 34.1734 Z" fill="#000000" fill-rule="evenodd" fill-opacity="1" /><path clip-path="url(#clip420)" d="M1753.89 28.9478 L1753.89 35.9153 Q1750.73 34.1734 1747.53 33.3227 Q1744.37 32.4315 1741.13 32.4315 Q1733.88 32.4315 1729.86 37.0496 Q1725.85 41.6271 1725.85 49.9314 Q1725.85 58.2358 1729.86 62.8538 Q1733.88 67.4314 1741.13 67.4314 Q1744.37 67.4314 1747.53 66.5807 Q1750.73 65.6895 1753.89 63.9476 L1753.89 70.8341 Q1750.77 72.2924 1747.41 73.0216 Q1744.08 73.7508 1740.32 73.7508 Q1730.07 73.7508 1724.03 67.3098 Q1718 60.8689 1718 49.9314 Q1718 38.832 1724.07 32.472 Q1730.19 26.1121 1740.8 26.1121 Q1744.25 26.1121 1747.53 26.8413 Q1750.81 27.5299 1753.89 28.9478 Z" fill="#000000" fill-rule="evenodd" fill-opacity="1" /><path clip-path="url(#clip420)" d="M1805.66 48.0275 L1805.66 51.6733 L1771.39 51.6733 Q1771.87 59.3701 1776 63.421 Q1780.18 67.4314 1787.59 67.4314 Q1791.88 67.4314 1795.89 66.3781 Q1799.95 65.3249 1803.92 63.2184 L1803.92 70.267 Q1799.9 71.9684 1795.69 72.8596 Q1791.48 73.7508 1787.14 73.7508 Q1776.29 73.7508 1769.93 67.4314 Q1763.61 61.1119 1763.61 50.3365 Q1763.61 39.1965 1769.6 32.6746 Q1775.64 26.1121 1785.85 26.1121 Q1795 26.1121 1800.31 32.0264 Q1805.66 37.9003 1805.66 48.0275 M1798.2 45.84 Q1798.12 39.7232 1794.76 36.0774 Q1791.44 32.4315 1785.93 32.4315 Q1779.69 32.4315 1775.92 35.9558 Q1772.2 39.4801 1771.63 45.8805 L1798.2 45.84 Z" fill="#000000" fill-rule="evenodd" fill-opacity="1" /><polyline clip-path="url(#clip422)" style="stroke:#009af9; stroke-linecap:butt; stroke-linejoin:round; stroke-width:4; stroke-opacity:1; fill:none" points="
  234.14,160.256 241.202,176.76 248.264,193.046 255.326,209.116 262.388,224.973 269.45,240.62 276.512,256.06 283.574,271.296 290.636,286.329 297.698,301.164 
  304.761,315.802 311.823,330.247 318.885,344.5 325.947,358.564 333.009,372.443 340.071,386.137 347.133,399.65 354.195,412.984 361.257,426.142 368.32,439.126 
  375.382,451.937 382.444,464.579 389.506,477.053 396.568,489.363 403.63,501.509 410.692,513.494 417.754,525.321 424.816,536.991 431.878,548.507 438.941,559.87 
  446.003,571.083 453.065,582.147 460.127,593.065 467.189,603.838 474.251,614.468 481.313,624.958 488.375,635.309 495.437,645.523 502.499,655.601 509.562,665.546 
  516.624,675.359 523.686,685.043 530.748,694.598 537.81,704.027 544.872,713.331 551.934,722.511 558.996,731.57 566.058,740.51 573.12,749.33 580.183,758.034 
  587.245,766.623 594.307,775.098 601.369,783.461 608.431,791.713 615.493,799.856 622.555,807.891 629.617,815.819 636.679,823.643 643.741,831.363 650.804,838.98 
  657.866,846.497 664.928,853.915 671.99,861.234 679.052,868.456 686.114,875.583 693.176,882.615 700.238,889.554 707.3,896.401 714.362,903.158 721.425,909.825 
  728.487,916.404 735.549,922.895 742.611,929.301 749.673,935.622 756.735,941.859 763.797,948.014 770.859,954.087 777.921,960.08 784.983,965.993 792.046,971.828 
  799.108,977.586 806.17,983.268 813.232,988.874 820.294,994.406 827.356,999.865 834.418,1005.25 841.48,1010.57 848.542,1015.81 855.605,1020.99 862.667,1026.09 
  869.729,1031.13 876.791,1036.11 883.853,1041.01 890.915,1045.85 897.977,1050.63 905.039,1055.35 912.101,1060 919.163,1064.59 926.226,1069.12 933.288,1073.59 
  940.35,1078 947.412,1082.35 954.474,1086.64 961.536,1090.88 968.598,1095.06 975.66,1099.19 982.722,1103.26 989.784,1107.28 996.847,1111.24 1003.91,1115.15 
  1010.97,1119.01 1018.03,1122.82 1025.09,1126.58 1032.16,1130.29 1039.22,1133.95 1046.28,1137.56 1053.34,1141.12 1060.41,1144.64 1067.47,1148.11 1074.53,1151.53 
  1081.59,1154.91 1088.65,1158.25 1095.72,1161.53 1102.78,1164.78 1109.84,1167.98 1116.9,1171.14 1123.96,1174.26 1131.03,1177.34 1138.09,1180.38 1145.15,1183.37 
  1152.21,1186.33 1159.27,1189.25 1166.34,1192.13 1173.4,1194.97 1180.46,1197.77 1187.52,1200.54 1194.59,1203.27 1201.65,1205.96 1208.71,1208.62 1215.77,1211.24 
  1222.83,1213.83 1229.9,1216.38 1236.96,1218.9 1244.02,1221.39 1251.08,1223.84 1258.14,1226.26 1265.21,1228.65 1272.27,1231.01 1279.33,1233.33 1286.39,1235.63 
  1293.45,1237.89 1300.52,1240.13 1307.58,1242.33 1314.64,1244.51 1321.7,1246.65 1328.77,1248.77 1335.83,1250.86 1342.89,1252.93 1349.95,1254.96 1357.01,1256.97 
  1364.08,1258.95 1371.14,1260.91 1378.2,1262.84 1385.26,1264.74 1392.32,1266.62 1399.39,1268.48 1406.45,1270.31 1413.51,1272.11 1420.57,1273.89 1427.63,1275.65 
  1434.7,1277.39 1441.76,1279.1 1448.82,1280.79 1455.88,1282.46 1462.95,1284.1 1470.01,1285.72 1477.07,1287.32 1484.13,1288.9 1491.19,1290.46 1498.26,1292 
  1505.32,1293.52 1512.38,1295.02 1519.44,1296.5 1526.5,1297.96 1533.57,1299.4 1540.63,1300.82 1547.69,1302.22 1554.75,1303.6 1561.81,1304.97 1568.88,1306.31 
  1575.94,1307.64 1583,1308.95 1590.06,1310.25 1597.13,1311.52 1604.19,1312.78 1611.25,1314.03 1618.31,1315.25 1625.37,1316.46 1632.44,1317.66 1639.5,1318.84 
  1646.56,1320 1653.62,1321.15 1660.68,1322.28 1667.75,1323.4 1674.81,1324.5 1681.87,1325.59 1688.93,1326.66 1695.99,1327.72 1703.06,1328.76 1710.12,1329.8 
  1717.18,1330.81 1724.24,1331.82 1731.31,1332.81 1738.37,1333.79 1745.43,1334.75 1752.49,1335.7 1759.55,1336.64 1766.62,1337.57 1773.68,1338.49 1780.74,1339.39 
  1787.8,1340.28 1794.86,1341.16 1801.93,1342.03 1808.99,1342.88 1816.05,1343.73 1823.11,1344.56 1830.17,1345.38 1837.24,1346.19 1844.3,1346.99 1851.36,1347.78 
  1858.42,1348.56 1865.49,1349.33 1872.55,1350.09 1879.61,1350.84 1886.67,1351.58 1893.73,1352.31 1900.8,1353.03 1907.86,1353.74 1914.92,1354.44 1921.98,1355.13 
  1929.04,1355.82 1936.11,1356.49 1943.17,1357.15 1950.23,1357.81 1957.29,1358.46 1964.35,1359.09 1971.42,1359.72 1978.48,1360.35 1985.54,1360.96 1992.6,1361.56 
  1999.66,1362.16 2006.73,1362.75 2013.79,1363.33 2020.85,1363.91 2027.91,1364.47 2034.98,1365.03 2042.04,1365.58 2049.1,1366.13 2056.16,1366.66 2063.22,1367.19 
  2070.29,1367.72 2077.35,1368.23 2084.41,1368.74 2091.47,1369.24 2098.53,1369.74 2105.6,1370.23 2112.66,1370.71 2119.72,1371.19 2126.78,1371.65 2133.84,1372.12 
  2140.91,1372.58 2147.97,1373.03 2155.03,1373.47 2162.09,1373.91 2169.16,1374.35 2176.22,1374.77 2183.28,1375.2 2190.34,1375.61 2197.4,1376.02 2204.47,1376.43 
  2211.53,1376.83 2218.59,1377.23 2225.65,1377.62 2232.71,1378 2239.78,1378.38 2246.84,1378.75 2253.9,1379.12 2260.96,1379.49 2268.02,1379.85 2275.09,1380.2 
  2282.15,1380.55 2289.21,1380.9 2296.27,1381.24 2303.34,1381.58 2310.4,1381.91 2317.46,1382.24 2324.52,1382.56 2331.58,1382.88 2338.65,1383.19 2345.71,1383.51 
  2352.77,1383.81 2359.83,1384.11 2366.89,1384.41 2373.96,1384.71 2381.02,1385 2388.08,1385.29 2395.14,1385.57 2402.2,1385.85 2409.27,1386.12 2416.33,1386.4 
  
  "/>
<path clip-path="url(#clip420)" d="
M1413.68 287.756 L2282.13 287.756 L2282.13 166.796 L1413.68 166.796  Z
  " fill="#ffffff" fill-rule="evenodd" fill-opacity="1"/>
<polyline clip-path="url(#clip420)" style="stroke:#000000; stroke-linecap:butt; stroke-linejoin:round; stroke-width:4; stroke-opacity:1; fill:none" points="
  1413.68,287.756 2282.13,287.756 2282.13,166.796 1413.68,166.796 1413.68,287.756 
  "/>
<polyline clip-path="url(#clip420)" style="stroke:#009af9; stroke-linecap:butt; stroke-linejoin:round; stroke-width:4; stroke-opacity:1; fill:none" points="
  1437.22,227.276 1578.46,227.276 
  "/>
<path clip-path="url(#clip420)" d="M1617.84 214.602 L1611.49 231.801 L1624.2 231.801 L1617.84 214.602 M1615.2 209.996 L1620.5 209.996 L1633.67 244.556 L1628.81 244.556 L1625.66 235.69 L1610.08 235.69 L1606.93 244.556 L1602 244.556 L1615.2 209.996 Z" fill="#000000" fill-rule="evenodd" fill-opacity="1" /><path clip-path="url(#clip420)" d="M1656.35 219.625 L1656.35 223.607 Q1654.55 222.611 1652.72 222.125 Q1650.91 221.616 1649.06 221.616 Q1644.92 221.616 1642.63 224.255 Q1640.34 226.871 1640.34 231.616 Q1640.34 236.361 1642.63 239 Q1644.92 241.616 1649.06 241.616 Q1650.91 241.616 1652.72 241.13 Q1654.55 240.621 1656.35 239.625 L1656.35 243.56 Q1654.57 244.394 1652.65 244.81 Q1650.75 245.227 1648.6 245.227 Q1642.74 245.227 1639.29 241.546 Q1635.84 237.866 1635.84 231.616 Q1635.84 225.273 1639.32 221.639 Q1642.81 218.005 1648.88 218.005 Q1650.84 218.005 1652.72 218.422 Q1654.59 218.815 1656.35 219.625 Z" fill="#000000" fill-rule="evenodd" fill-opacity="1" /><path clip-path="url(#clip420)" d="M1667.97 211.269 L1667.97 218.63 L1676.75 218.63 L1676.75 221.94 L1667.97 221.94 L1667.97 236.014 Q1667.97 239.185 1668.83 240.088 Q1669.71 240.991 1672.37 240.991 L1676.75 240.991 L1676.75 244.556 L1672.37 244.556 Q1667.44 244.556 1665.57 242.727 Q1663.69 240.875 1663.69 236.014 L1663.69 221.94 L1660.57 221.94 L1660.57 218.63 L1663.69 218.63 L1663.69 211.269 L1667.97 211.269 Z" fill="#000000" fill-rule="evenodd" fill-opacity="1" /><path clip-path="url(#clip420)" d="M1682.35 218.63 L1686.61 218.63 L1686.61 244.556 L1682.35 244.556 L1682.35 218.63 M1682.35 208.537 L1686.61 208.537 L1686.61 213.931 L1682.35 213.931 L1682.35 208.537 Z" fill="#000000" fill-rule="evenodd" fill-opacity="1" /><path clip-path="url(#clip420)" d="M1692.46 218.63 L1696.98 218.63 L1705.08 240.389 L1713.18 218.63 L1717.7 218.63 L1707.97 244.556 L1702.19 244.556 L1692.46 218.63 Z" fill="#000000" fill-rule="evenodd" fill-opacity="1" /><path clip-path="url(#clip420)" d="M1723.58 218.63 L1727.83 218.63 L1727.83 244.556 L1723.58 244.556 L1723.58 218.63 M1723.58 208.537 L1727.83 208.537 L1727.83 213.931 L1723.58 213.931 L1723.58 208.537 Z" fill="#000000" fill-rule="evenodd" fill-opacity="1" /><path clip-path="url(#clip420)" d="M1740.96 211.269 L1740.96 218.63 L1749.73 218.63 L1749.73 221.94 L1740.96 221.94 L1740.96 236.014 Q1740.96 239.185 1741.82 240.088 Q1742.7 240.991 1745.36 240.991 L1749.73 240.991 L1749.73 244.556 L1745.36 244.556 Q1740.43 244.556 1738.55 242.727 Q1736.68 240.875 1736.68 236.014 L1736.68 221.94 L1733.55 221.94 L1733.55 218.63 L1736.68 218.63 L1736.68 211.269 L1740.96 211.269 Z" fill="#000000" fill-rule="evenodd" fill-opacity="1" /><path clip-path="url(#clip420)" d="M1766.12 246.963 Q1764.32 251.593 1762.6 253.005 Q1760.89 254.417 1758.02 254.417 L1754.62 254.417 L1754.62 250.852 L1757.12 250.852 Q1758.88 250.852 1759.85 250.019 Q1760.82 249.185 1762 246.083 L1762.77 244.139 L1752.28 218.63 L1756.79 218.63 L1764.89 238.908 L1773 218.63 L1777.51 218.63 L1766.12 246.963 Z" fill="#000000" fill-rule="evenodd" fill-opacity="1" /><path clip-path="url(#clip420)" d="M1808.51 221.616 Q1805.08 221.616 1803.09 224.301 Q1801.1 226.963 1801.1 231.616 Q1801.1 236.269 1803.07 238.954 Q1805.06 241.616 1808.51 241.616 Q1811.91 241.616 1813.9 238.931 Q1815.89 236.246 1815.89 231.616 Q1815.89 227.01 1813.9 224.324 Q1811.91 221.616 1808.51 221.616 M1808.51 218.005 Q1814.06 218.005 1817.23 221.616 Q1820.4 225.227 1820.4 231.616 Q1820.4 237.982 1817.23 241.616 Q1814.06 245.227 1808.51 245.227 Q1802.93 245.227 1799.76 241.616 Q1796.61 237.982 1796.61 231.616 Q1796.61 225.227 1799.76 221.616 Q1802.93 218.005 1808.51 218.005 Z" fill="#000000" fill-rule="evenodd" fill-opacity="1" /><path clip-path="url(#clip420)" d="M1840.59 208.537 L1840.59 212.079 L1836.51 212.079 Q1834.22 212.079 1833.32 213.005 Q1832.44 213.931 1832.44 216.338 L1832.44 218.63 L1839.45 218.63 L1839.45 221.94 L1832.44 221.94 L1832.44 244.556 L1828.16 244.556 L1828.16 221.94 L1824.08 221.94 L1824.08 218.63 L1828.16 218.63 L1828.16 216.824 Q1828.16 212.496 1830.17 210.528 Q1832.19 208.537 1836.56 208.537 L1840.59 208.537 Z" fill="#000000" fill-rule="evenodd" fill-opacity="1" /><path clip-path="url(#clip420)" d="M1863.44 211.269 L1863.44 218.63 L1872.21 218.63 L1872.21 221.94 L1863.44 221.94 L1863.44 236.014 Q1863.44 239.185 1864.29 240.088 Q1865.17 240.991 1867.83 240.991 L1872.21 240.991 L1872.21 244.556 L1867.83 244.556 Q1862.9 244.556 1861.03 242.727 Q1859.15 240.875 1859.15 236.014 L1859.15 221.94 L1856.03 221.94 L1856.03 218.63 L1859.15 218.63 L1859.15 211.269 L1863.44 211.269 Z" fill="#000000" fill-rule="evenodd" fill-opacity="1" /><path clip-path="url(#clip420)" d="M1899.36 228.908 L1899.36 244.556 L1895.1 244.556 L1895.1 229.047 Q1895.1 225.366 1893.67 223.537 Q1892.23 221.709 1889.36 221.709 Q1885.91 221.709 1883.92 223.908 Q1881.93 226.107 1881.93 229.903 L1881.93 244.556 L1877.65 244.556 L1877.65 208.537 L1881.93 208.537 L1881.93 222.658 Q1883.46 220.32 1885.52 219.162 Q1887.6 218.005 1890.31 218.005 Q1894.78 218.005 1897.07 220.783 Q1899.36 223.537 1899.36 228.908 Z" fill="#000000" fill-rule="evenodd" fill-opacity="1" /><path clip-path="url(#clip420)" d="M1930.03 230.528 L1930.03 232.611 L1910.45 232.611 Q1910.73 237.009 1913.09 239.324 Q1915.47 241.616 1919.71 241.616 Q1922.16 241.616 1924.45 241.014 Q1926.77 240.412 1929.04 239.209 L1929.04 243.236 Q1926.75 244.208 1924.34 244.718 Q1921.93 245.227 1919.45 245.227 Q1913.25 245.227 1909.62 241.616 Q1906.01 238.005 1906.01 231.847 Q1906.01 225.482 1909.43 221.755 Q1912.88 218.005 1918.71 218.005 Q1923.94 218.005 1926.98 221.385 Q1930.03 224.741 1930.03 230.528 M1925.77 229.278 Q1925.73 225.783 1923.81 223.699 Q1921.91 221.616 1918.76 221.616 Q1915.19 221.616 1913.04 223.63 Q1910.91 225.644 1910.59 229.301 L1925.77 229.278 Z" fill="#000000" fill-rule="evenodd" fill-opacity="1" /><path clip-path="url(#clip420)" d="M1953.83 226.454 L1963.64 226.454 L1963.64 229.093 L1949.8 229.093 L1949.8 226.547 Q1950.59 225.829 1952.05 224.533 Q1960.01 217.473 1960.01 215.297 Q1960.01 213.769 1958.81 212.843 Q1957.6 211.894 1955.63 211.894 Q1954.43 211.894 1953.02 212.311 Q1951.61 212.704 1949.94 213.514 L1949.94 210.667 Q1951.72 210.019 1953.25 209.695 Q1954.8 209.371 1956.12 209.371 Q1959.48 209.371 1961.49 210.898 Q1963.5 212.426 1963.5 214.926 Q1963.5 218.144 1955.84 224.718 Q1954.55 225.829 1953.83 226.454 Z" fill="#000000" fill-rule="evenodd" fill-opacity="1" /><path clip-path="url(#clip420)" d="M1972.83 226.454 L1982.65 226.454 L1982.65 229.093 L1968.81 229.093 L1968.81 226.547 Q1969.59 225.829 1971.05 224.533 Q1979.01 217.473 1979.01 215.297 Q1979.01 213.769 1977.81 212.843 Q1976.61 211.894 1974.64 211.894 Q1973.44 211.894 1972.02 212.311 Q1970.61 212.704 1968.94 213.514 L1968.94 210.667 Q1970.73 210.019 1972.25 209.695 Q1973.81 209.371 1975.13 209.371 Q1978.48 209.371 1980.5 210.898 Q1982.51 212.426 1982.51 214.926 Q1982.51 218.144 1974.85 224.718 Q1973.55 225.829 1972.83 226.454 Z" fill="#000000" fill-rule="evenodd" fill-opacity="1" /><path clip-path="url(#clip420)" d="M1990.29 209.996 L1996.58 209.996 L2011.91 238.908 L2011.91 209.996 L2016.44 209.996 L2016.44 244.556 L2010.15 244.556 L1994.82 215.644 L1994.82 244.556 L1990.29 244.556 L1990.29 209.996 Z" fill="#000000" fill-rule="evenodd" fill-opacity="1" /><path clip-path="url(#clip420)" d="M2037.35 231.523 Q2032.18 231.523 2030.19 232.704 Q2028.2 233.884 2028.2 236.732 Q2028.2 239 2029.68 240.343 Q2031.19 241.662 2033.76 241.662 Q2037.3 241.662 2039.43 239.162 Q2041.58 236.639 2041.58 232.472 L2041.58 231.523 L2037.35 231.523 M2045.84 229.764 L2045.84 244.556 L2041.58 244.556 L2041.58 240.621 Q2040.12 242.982 2037.95 244.116 Q2035.77 245.227 2032.62 245.227 Q2028.64 245.227 2026.28 243.005 Q2023.94 240.759 2023.94 237.009 Q2023.94 232.634 2026.86 230.412 Q2029.8 228.19 2035.61 228.19 L2041.58 228.19 L2041.58 227.773 Q2041.58 224.834 2039.64 223.236 Q2037.72 221.616 2034.22 221.616 Q2032 221.616 2029.89 222.148 Q2027.79 222.681 2025.84 223.746 L2025.84 219.81 Q2028.18 218.908 2030.38 218.468 Q2032.58 218.005 2034.66 218.005 Q2040.29 218.005 2043.06 220.922 Q2045.84 223.838 2045.84 229.764 Z" fill="#000000" fill-rule="evenodd" fill-opacity="1" /><path clip-path="url(#clip420)" d="M2086.21 219.394 L2086.21 223.422 Q2084.41 222.496 2082.46 222.033 Q2080.52 221.57 2078.43 221.57 Q2075.26 221.57 2073.67 222.542 Q2072.09 223.514 2072.09 225.459 Q2072.09 226.94 2073.23 227.797 Q2074.36 228.63 2077.79 229.394 L2079.24 229.718 Q2083.78 230.69 2085.68 232.472 Q2087.6 234.232 2087.6 237.403 Q2087.6 241.014 2084.73 243.121 Q2081.88 245.227 2076.88 245.227 Q2074.8 245.227 2072.53 244.81 Q2070.29 244.417 2067.79 243.607 L2067.79 239.209 Q2070.15 240.435 2072.44 241.06 Q2074.73 241.662 2076.98 241.662 Q2079.99 241.662 2081.61 240.644 Q2083.23 239.602 2083.23 237.727 Q2083.23 235.991 2082.05 235.065 Q2080.89 234.139 2076.93 233.283 L2075.45 232.935 Q2071.49 232.102 2069.73 230.389 Q2067.97 228.653 2067.97 225.644 Q2067.97 221.986 2070.56 219.996 Q2073.16 218.005 2077.93 218.005 Q2080.29 218.005 2082.37 218.352 Q2084.45 218.699 2086.21 219.394 Z" fill="#000000" fill-rule="evenodd" fill-opacity="1" /><path clip-path="url(#clip420)" d="M2106.17 231.523 Q2101 231.523 2099.01 232.704 Q2097.02 233.884 2097.02 236.732 Q2097.02 239 2098.5 240.343 Q2100.01 241.662 2102.58 241.662 Q2106.12 241.662 2108.25 239.162 Q2110.4 236.639 2110.4 232.472 L2110.4 231.523 L2106.17 231.523 M2114.66 229.764 L2114.66 244.556 L2110.4 244.556 L2110.4 240.621 Q2108.94 242.982 2106.77 244.116 Q2104.59 245.227 2101.44 245.227 Q2097.46 245.227 2095.1 243.005 Q2092.76 240.759 2092.76 237.009 Q2092.76 232.634 2095.68 230.412 Q2098.62 228.19 2104.43 228.19 L2110.4 228.19 L2110.4 227.773 Q2110.4 224.834 2108.46 223.236 Q2106.54 221.616 2103.04 221.616 Q2100.82 221.616 2098.71 222.148 Q2096.61 222.681 2094.66 223.746 L2094.66 219.81 Q2097 218.908 2099.2 218.468 Q2101.4 218.005 2103.48 218.005 Q2109.11 218.005 2111.88 220.922 Q2114.66 223.838 2114.66 229.764 Z" fill="#000000" fill-rule="evenodd" fill-opacity="1" /><path clip-path="url(#clip420)" d="M2143.62 223.607 Q2145.22 220.736 2147.44 219.371 Q2149.66 218.005 2152.67 218.005 Q2156.72 218.005 2158.92 220.852 Q2161.12 223.676 2161.12 228.908 L2161.12 244.556 L2156.84 244.556 L2156.84 229.047 Q2156.84 225.32 2155.52 223.514 Q2154.2 221.709 2151.49 221.709 Q2148.18 221.709 2146.26 223.908 Q2144.34 226.107 2144.34 229.903 L2144.34 244.556 L2140.05 244.556 L2140.05 229.047 Q2140.05 225.297 2138.74 223.514 Q2137.42 221.709 2134.66 221.709 Q2131.4 221.709 2129.48 223.931 Q2127.55 226.13 2127.55 229.903 L2127.55 244.556 L2123.27 244.556 L2123.27 218.63 L2127.55 218.63 L2127.55 222.658 Q2129.01 220.273 2131.05 219.139 Q2133.09 218.005 2135.89 218.005 Q2138.71 218.005 2140.68 219.44 Q2142.67 220.875 2143.62 223.607 Z" fill="#000000" fill-rule="evenodd" fill-opacity="1" /><path clip-path="url(#clip420)" d="M2173.74 240.667 L2173.74 254.417 L2169.45 254.417 L2169.45 218.63 L2173.74 218.63 L2173.74 222.565 Q2175.08 220.25 2177.11 219.139 Q2179.17 218.005 2182.02 218.005 Q2186.74 218.005 2189.68 221.755 Q2192.65 225.505 2192.65 231.616 Q2192.65 237.727 2189.68 241.477 Q2186.74 245.227 2182.02 245.227 Q2179.17 245.227 2177.11 244.116 Q2175.08 242.982 2173.74 240.667 M2188.23 231.616 Q2188.23 226.917 2186.28 224.255 Q2184.36 221.57 2180.98 221.57 Q2177.6 221.57 2175.66 224.255 Q2173.74 226.917 2173.74 231.616 Q2173.74 236.315 2175.66 239 Q2177.6 241.662 2180.98 241.662 Q2184.36 241.662 2186.28 239 Q2188.23 236.315 2188.23 231.616 Z" fill="#000000" fill-rule="evenodd" fill-opacity="1" /><path clip-path="url(#clip420)" d="M2199.71 208.537 L2203.97 208.537 L2203.97 244.556 L2199.71 244.556 L2199.71 208.537 Z" fill="#000000" fill-rule="evenodd" fill-opacity="1" /><path clip-path="url(#clip420)" d="M2235.05 230.528 L2235.05 232.611 L2215.47 232.611 Q2215.75 237.009 2218.11 239.324 Q2220.49 241.616 2224.73 241.616 Q2227.18 241.616 2229.48 241.014 Q2231.79 240.412 2234.06 239.209 L2234.06 243.236 Q2231.77 244.208 2229.36 244.718 Q2226.95 245.227 2224.48 245.227 Q2218.27 245.227 2214.64 241.616 Q2211.03 238.005 2211.03 231.847 Q2211.03 225.482 2214.45 221.755 Q2217.9 218.005 2223.73 218.005 Q2228.97 218.005 2232 221.385 Q2235.05 224.741 2235.05 230.528 M2230.79 229.278 Q2230.75 225.783 2228.83 223.699 Q2226.93 221.616 2223.78 221.616 Q2220.22 221.616 2218.06 223.63 Q2215.93 225.644 2215.61 229.301 L2230.79 229.278 Z" fill="#000000" fill-rule="evenodd" fill-opacity="1" /></svg>
